<svg version="1.1" xmlns="http://www.w3.org/2000/svg" xmlns:xlink="http://www.w3.org/1999/xlink" width="734" height="1066"><desc>%40startuml%0A%0Atitle%20Stock%20Management%20System%0A%0A%3D%3D%20Deposit%2FWithdraw%20Process%20%3D%3D%0Aparticipant%20User%0Aparticipant%20Admin%0Adatabase%20Database%0A%0AUser%20-%3E%20Admin%3A%20Deposit%2FWithdraw%20Request%0AAdmin%20-%3E%20Database%3A%20Retrieve%20User%20Information%0ADatabase%20--%3E%20Admin%3A%20User%20Info%0AAdmin%20-%3E%20Database%3A%20Update%20Balance%0ADatabase%20--%3E%20Admin%3A%20Balance%20Updated%0AAdmin%20--%3E%20User%3A%20Confirmation%0A%0A%3D%3D%20Buy%2FSell%20Stock%20Process%20%3D%3D%0Aparticipant%20User%0Aparticipant%20StockMarket%0Adatabase%20Database%0A%0AUser%20-%3E%20StockMarket%3A%20Buy%2FSell%20Stock%20Request%0AStockMarket%20-%3E%20Database%3A%20Retrieve%20Stock%20Info%0ADatabase%20--%3E%20StockMarket%3A%20Stock%20Info%0AStockMarket%20-%3E%20Database%3A%20Update%20Stock%20Quantity%0ADatabase%20--%3E%20StockMarket%3A%20Stock%20Quantity%20Updated%0AStockMarket%20--%3E%20User%3A%20Confirmation%0A%0A%3D%3D%20Admin%20Update%20Stock%20Process%20%3D%3D%0Aparticipant%20Admin%0Adatabase%20Database%0A%0AAdmin%20-%3E%20Database%3A%20Update%20Stock%20Info%0ADatabase%20--%3E%20Admin%3A%20Stock%20Info%20Updated%0AAdmin%20--%3E%20StockMarket%3A%20Confirmation%0A%0A%40enduml%0A</desc><defs/><g><g/><g/><g/><g/><g/><g/><g/><g/><g/><g/><g/><g/><g/><g/><g/><g/><g/><g/><g/><g/><g/><g/><g/><g/><g/><g/><g/><g/><g/><g/><g/><g/><g/><g/><g/><g/><g/><g/><g/><g/><g/><g/><g/><g/><g/><g/><g/><g/><g/><g/><g/><g/><g/><g/><g/><g/><g/><g/><g/><g/><g/><g/><g/><g/><g/><g/><g/><g/><g/><g/><g/><g/><g/><g/><g/><g/><g/><g/><g/><g/><g/><g/><g/><g/><g/><g/><g/><g/><g/><g/><g/><g/><g/><g/><g/><g/><g/><g/><g/><g/><g/><g/><g/><g/><g><rect fill="white" stroke="none" x="0" y="0" width="734" height="1066"/></g><g/><g><path fill="none" stroke="black" paint-order="fill stroke markers" d=" M 41.36731041409375 128.73625218881818 L 41.36731041409375 1066.3769216088176" stroke-miterlimit="10" stroke-width="1.3612669416666667" stroke-dasharray="12.565541,5.445067766666667"/><path fill="none" stroke="black" paint-order="fill stroke markers" d=" M 258.47826758648955 128.73625218881818 L 258.47826758648955 1066.3769216088176" stroke-miterlimit="10" stroke-width="1.3612669416666667" stroke-dasharray="12.565541,5.445067766666667"/><path fill="none" stroke="black" paint-order="fill stroke markers" d=" M 469.0609349639635 128.73625218881818 L 469.0609349639635 1066.3769216088176" stroke-miterlimit="10" stroke-width="1.3612669416666667" stroke-dasharray="12.565541,5.445067766666667"/><path fill="none" stroke="black" paint-order="fill stroke markers" d=" M 667.4532184303047 128.73625218881818 L 667.4532184303047 1066.3769216088176" stroke-miterlimit="10" stroke-width="1.3612669416666667" stroke-dasharray="12.565541,5.445067766666667"/></g><g><path fill="none" stroke="none"/><g><path fill="white" stroke="black" paint-order="fill stroke markers" d=" M 8.167601650000002 84.63120327881819 L 74.56701917818751 84.63120327881819 L 74.56701917818751 128.73625218881818 L 8.167601650000002 128.73625218881818 L 8.167601650000002 84.63120327881819 Z" stroke-miterlimit="10" stroke-width="2.613632528" stroke-dasharray=""/></g><g><g/><text fill="black" stroke="none" font-family="sans-serif" font-size="11pt" font-style="normal" font-weight="normal" text-decoration="normal" x="25.8912972305" y="112.40104888881817" text-anchor="start" dominant-baseline="alphabetic" xml:space="preserve">User</text></g><path fill="none" stroke="none"/><g><path fill="white" stroke="black" paint-order="fill stroke markers" d=" M 219.97791490149734 84.63120327881819 L 296.97862027148176 84.63120327881819 L 296.97862027148176 128.73625218881818 L 219.97791490149734 128.73625218881818 L 219.97791490149734 84.63120327881819 Z" stroke-miterlimit="10" stroke-width="2.613632528" stroke-dasharray=""/></g><g><g/><text fill="black" stroke="none" font-family="sans-serif" font-size="11pt" font-style="normal" font-weight="normal" text-decoration="normal" x="237.70161048199736" y="112.40104888881817" text-anchor="start" dominant-baseline="alphabetic" xml:space="preserve">Admin</text></g><g><path fill="white" stroke="black" paint-order="fill stroke markers" d=" M 445.2115381459635 96.71925372081819 L 445.2115381459635 62.41532679081819 L 492.9103317819635 62.41532679081819 L 492.9103317819635 96.71925372081819" stroke-miterlimit="10" stroke-width="2.7769845610000004" stroke-dasharray=""/><path fill="white" stroke="black" paint-order="fill stroke markers" d=" M 492.9103317819635 61.22285694991819 L 492.90913932205984 61.33066749483481 L 492.9055620615938 61.43846725878678 L 492.8996003582884 61.546245461887544 L 492.8912548083091 61.65399132640659 L 492.8805262462039 61.761694077847274 L 492.86741574482005 61.86934294602419 L 492.8519246151968 61.976927166140236 L 492.8340544064342 62.084435979863045 L 492.8138069055382 62.19185863640084 L 492.791184137242 62.299184393577484 L 492.7661883638037 62.4064025189067 L 492.73882208477966 62.51350229066531 L 492.70908803677503 62.62047299896537 L 492.6769891931699 62.7273039468252 L 492.6425287638218 62.83398445123905 L 492.605710194745 62.94050384424536 L 492.56653716776566 63.04685147399361 L 492.5250136001539 63.15301670580944 L 492.48114364423185 63.25898892325815 L 492.4349316869586 63.364757529206294 L 492.38638234949127 63.47031194688142 L 492.33550048672316 63.575641620929716 L 492.28229118679826 63.68073601847156 L 492.2267597706021 63.78558463015478 L 492.16891179123 63.89017697120557 L 492.10875303343187 63.994502582477 L 492.0462895130332 64.09855103149486 L 491.981527476334 64.20231191350096 L 491.91447339948405 64.3057748524936 L 491.845133987835 64.40892950226505 L 491.7735161752704 64.51176554743633 L 491.6996271235118 64.61427270448858 L 491.6234742214027 64.71644072279157 L 491.5450650841699 64.81825938562858 L 491.46440755266184 64.91971851121816 L 491.38150969256435 65.02080795373233 L 491.29637979359444 65.12151760431107 L 491.20902636867106 65.22183739207324 L 491.1194581530639 65.32175728512367 L 491.02768410351985 65.42126729155632 L 490.9337133973674 65.52035746045347 L 490.83755543159884 65.6190178828808 L 490.7392198219307 65.71723869287828 L 490.6387164018419 65.81501006844678 L 490.53605522159074 65.91232223253022 L 490.43124654720975 66.00916545399325 L 490.3243008594789 66.10553004859446 L 490.21522885287794 66.20140637995469 L 490.1040414345166 66.29678486052069 L 489.9907497230441 66.39165595252388 L 489.87536504753706 66.48601016893414 L 489.75789894636705 66.57983807440844 L 489.63836316604613 66.67313028623443 L 489.5167696600529 66.76587747526865 L 489.39313058763645 66.85807036686953 L 489.2674583126011 66.94969974182469 L 489.1397654020696 67.04075643727302 L 489.0100646252266 67.13123134762085 L 488.8783689520417 67.22111542545254 L 488.7446915519725 67.3103996824352 L 488.6090457926475 67.39907519021754 L 488.4714452385297 67.4871330813227 L 488.3319036495598 67.57456455003492 L 488.19043497978043 67.6613608532802 L 488.0470533759407 67.74751331150055 L 487.9017731760815 67.83301330952195 L 487.7546089081017 67.91785229741582 L 487.6055752883055 68.00202179135408 L 487.4546872199307 68.08551337445749 L 487.30195979165836 68.1683186976373 L 487.14740827610404 68.25042948043021 L 486.9910481282906 68.33183751182635 L 486.8328949841023 68.41253465109044 L 486.672964658722 68.4925128285758 L 486.51127314504885 68.5717640465313 L 486.34783661209946 68.65028037990122 L 486.182671403391 68.72805397711764 L 486.0157940353066 68.80507706088565 L 485.84722119544415 68.88134192896105 L 485.6769697409471 68.95684095492061 L 485.5050566968189 69.03156658892462 L 485.33149925422083 69.10551135847197 L 485.1563147687525 69.17866786914732 L 484.9795207587165 69.25102880536058 L 484.80113490336646 69.3225869310784 L 484.6211750411392 69.39333509054786 L 484.4396591678711 69.46326620901198 L 484.25660543499816 69.53237329341717 L 484.07203214774114 69.60064943311258 L 483.885957763275 69.66808780054113 L 483.698400888883 69.7346816519223 L 483.50938028009637 69.80042432792644 L 483.31891483881844 69.86530925434072 L 483.1270236114347 69.92932994272657 L 482.93372578690787 69.9924799910685 L 482.73904069485934 70.05475308441433 L 482.54298780363615 70.1161429955066 L 482.34558671836396 70.17664358540536 L 482.14685717898686 70.23624880410202 L 481.94681905829316 70.29495269112441 L 481.7454923599282 70.35274937613272 L 481.5428972163941 70.40963307950663 L 481.3390538870364 70.46559811292322 L 481.13398275601804 70.52063887992576 L 480.92770433028136 70.57474987648341 L 480.720239237497 70.62792569154163 L 480.51160822400135 70.68016100756323 L 480.30183215272183 70.73145060106012 L 480.0909320010909 70.78178934311569 L 479.8789288589478 70.8311721998977 L 479.6658439264302 70.8795942331616 L 479.4516985118538 70.92705060074444 L 479.2365140295815 70.973536557049 L 479.02031199788223 71.01904745351838 L 478.8031140367791 71.06357873910088 L 478.5849418658871 71.10712596070502 L 478.36581730224157 71.14968476364494 L 478.14576225811624 71.19125089207583 L 477.9247987388321 71.23182018941947 L 477.7029488405571 71.27138859877994 L 477.48023474809605 71.30995216334925 L 477.25667873267264 71.34750702680313 L 477.03230314970216 71.38404943368649 L 476.8071304365559 71.4195757297891 L 476.58118311031745 71.45408236251096 L 476.35448376553126 71.48756588121756 L 476.12705507194283 71.52002293758491 L 475.89891977223203 71.55145028593446 L 475.67010067973877 71.58184478355753 L 475.4406206761815 71.61120339102969 L 475.21050270936934 71.63952317251467 L 474.9797697909073 71.66680129605793 L 474.7484449938949 71.69303503386982 L 474.51655145061915 71.71822176259843 L 474.284112350241 71.7423589635919 L 474.05115093647686 71.7654442231502 L 473.817690505274 71.78747523276665 L 473.58375440248096 71.80844978935863 L 473.34936602151305 71.82836579548797 L 473.11454880101303 71.84722125957065 L 472.87932622250736 71.86501429607597 L 472.6437218080578 71.8817431257151 L 472.4077591179095 71.89740607561903 L 472.1714617481348 71.91200157950583 L 471.93485332827373 71.92552817783725 L 471.69795751897124 71.93798451796474 L 471.4607980096107 71.94936935426468 L 471.22339851594546 71.95968154826289 L 470.98578277772714 71.96892006874862 L 470.7479745563314 71.97708399187748 L 470.50999763238235 71.98417250126396 L 470.271875803374 71.99018488806304 L 470.03363288129077 71.99512055104105 L 469.79529269022646 71.99897899663581 L 469.5568790640014 72.00175983900598 L 469.3184158437797 72.00346280006961 L 469.0799268756845 72.00408770953204 L 468.84143600841406 72.00363450490285 L 468.60296709085617 72.0021032315021 L 468.364543969704 71.99949404245586 L 468.1261904870709 71.9958071986809 L 467.88793047810657 71.99104306885846 L 467.64978776861335 71.98520212939759 L 467.41178617266365 71.97828496438737 L 467.17394949021883 71.97029226553852 L 466.9363015047489 71.96122483211428 L 466.69886598085435 71.95108357085043 L 466.46166666188975 71.93986949586466 L 466.2247272675893 71.92758372855508 L 465.988071491695 71.91422749748824 L 465.7517229995872 71.89980213827607 L 465.51570542591816 71.8843090934425 L 465.2800423722486 71.86774991227908 L 465.04475740468746 71.85012625069015 L 464.8098740515354 71.83143987102717 L 464.57541580093215 71.81169264191253 L 464.3414060985072 71.79088653805269 L 464.1078683450359 71.7690236400407 L 463.87482589409893 71.74610613414815 L 463.64230204974723 71.72213631210651 L 463.41032006417146 71.69711657087802 L 463.1789031353768 71.67104941241597 L 462.9480744048633 71.64393744341446 L 462.71785695531173 71.6157833750478 L 462.4882738082751 71.58659002269937 L 462.2593479218769 71.55636030568009 L 462.03110218851486 71.52509724693644 L 461.80355943257223 71.49280397274828 L 461.576742408135 71.45948371241609 L 461.3506737967164 71.42513979793813 L 461.1253762049895 71.38977566367726 L 460.90087216252545 71.35339484601741 L 460.67718411954155 71.31600098301004 L 460.4543344446556 71.27759781401028 L 460.23234542264953 71.23818917930303 L 460.0112392522404 71.19777901971894 L 459.7910380438611 71.15637137624027 L 459.57176381744887 71.11397038959687 L 459.35343850024367 71.07058029985207 L 459.1360839245953 71.02620544597868 L 458.9197218257802 70.98085026542512 L 458.70437383982795 70.93451929367163 L 458.4900615013577 70.8872171637768 L 458.2768062414246 70.8389486059142 L 458.06462938537703 70.78971844689937 L 457.8535521507238 70.7395316097072 L 457.6435956450124 70.6883931129796 L 457.4347808637185 70.6363080705236 L 457.2271286881462 70.58328169080006 L 457.02065988334 70.52931927640276 L 456.81539509600833 70.47442622352818 L 456.6113548524589 70.41860802143584 L 456.408559556546 70.36187025189946 L 456.20702948763017 70.3042185886487 L 456.0067847985505 70.24565879680183 L 455.80784551360887 70.18619673228926 L 455.6102315265681 70.12583834126788 L 455.41396259866224 70.06458965952649 L 455.2190583566204 70.00245681188221 L 455.0255382907045 69.93944601156807 L 454.83342175275976 69.87556355961155 L 454.6427279542799 69.81081584420461 L 454.4534759644859 69.74520934006487 L 454.26568470841903 69.67875060778805 L 454.0793729650484 69.61144629319199 L 453.894559365393 69.54330312665208 L 453.7112623906589 69.47432792242817 L 453.52950037039074 69.40452757798322 L 453.3492914806391 69.3339090732935 L 453.17065374214286 69.26247947015062 L 452.9936050185269 69.19024591145539 L 452.81816301451613 69.11721562050347 L 452.6443452741647 69.0433959002631 L 452.4721691791018 68.96879413264479 L 452.3016519467934 68.89341777776313 L 452.1328106288208 68.81727437319081 L 451.9656621091749 68.74037153320482 L 451.8002231025685 68.66271694802508 L 451.6365101527644 68.58431838304537 L 451.4745396309211 68.5051836780569 L 451.31432773395574 68.4253207464642 L 451.1558904829247 68.34473757449386 L 450.99924372142084 68.26344222039596 L 450.8444031139899 68.18144281363814 L 450.69138414456364 68.09874755409275 L 450.5402021149114 68.01536471121685 L 450.39087214311013 67.9313026232252 L 450.2434091620326 67.84656969625658 L 450.09782791785403 67.76117440353308 L 449.95414296857757 67.67512528451279 L 449.8123686825784 67.5884309440359 L 449.6725192371669 67.50110005146425 L 449.53460861717116 67.41314133981427 L 449.3986506135382 67.32456360488388 L 449.2646588219551 67.23537570437271 L 449.1326466414894 67.14558655699653 L 449.002627273249 67.05520514159522 L 448.87461371906255 66.96424049623502 L 448.7486187801787 66.87270171730466 L 448.6246550559863 66.78059795860575 L 448.50273494275456 66.68793843043741 L 448.3828706323932 66.59473239867523 L 448.2650741112333 66.50098918384472 L 448.1493571588288 66.40671816018926 L 448.0357313467786 66.31192875473263 L 447.9242080375692 66.2166304463364 L 447.81479838343853 66.120832764752 L 447.70751332526083 66.02454528966774 L 447.6023635914526 65.92777764975091 L 447.49935969689955 65.83053952168484 L 447.3985119419052 65.73284062920132 L 447.29983041116117 65.63469074210818 L 447.2033249727382 65.53609967531233 L 447.10900527709975 65.4370772878383 L 447.01688075613674 65.33763348184232 L 446.92696062222456 65.23777820162212 L 446.83925386730164 65.13752143262249 L 446.7537692619704 65.03687320043682 L 446.67051535462 64.93584356980442 L 446.58950047057203 64.83444264360419 L 446.5107327112472 64.73268056184422 L 446.4342199533559 64.63056750064791 L 446.35996984811015 64.52811367123628 L 446.28798982045856 64.42532931890689 L 446.21828706834395 64.32222472200931 L 446.15086856198343 64.21881019091732 L 446.0857410431714 64.11509606699785 L 446.02291102460555 64.01109272157687 L 445.96238478923533 63.90681055490224 L 445.90416838963387 63.80225999510374 L 445.84826764739256 63.697451497150205 L 445.79468815253915 63.59239554180411 L 445.7434352629784 63.48710263457343 L 445.6945141039565 63.381583304661156 L 445.64792956754866 63.27584810391234 L 445.6036863121697 63.16990760575894 L 445.56178876210834 63.06377240416249 L 445.52224110708454 62.95745311255472 L 445.48504730183095 62.85096036277616 L 445.45021106569703 62.744304804013076 L 445.41773588227744 62.63749710173245 L 445.3876249990634 62.530547936615505 L 445.3598814271181 62.423468003489624 L 445.3345079407758 62.316268010258895 L 445.3115070773638 62.208958676833305 L 445.2908811369493 62.10155073405677 L 445.2726321821092 61.99405492263407 L 445.2567620377238 61.88648199205676 L 445.24327229079427 61.77884269952825 L 445.23216429028406 61.6711478088881 L 445.22343914698394 61.56340808953563 L 445.21709773340103 61.45563431535299 L 445.21314068367144 61.34783726362778 L 445.2115683934967 61.24002771397536 L 445.21238102010466 61.13221644726084 L 445.21557848223324 61.02441424452105 L 445.22116046013895 60.916631885886424 L 445.2291263956286 60.808880149503025 L 445.23947549211533 60.70116981045468 L 445.2522067146981 60.59351163968555 L 445.2673187902652 60.48591640292299 L 445.2848102076218 60.378394859601016 L 445.3046792176406 60.27095776178435 L 445.32692383343726 60.163615853093255 L 445.3515418305687 60.05637986762915 L 445.3785307472557 59.949260528901206 L 445.40788788462913 59.84226854875404 L 445.4396103069996 59.7354146262965 L 445.4736948421515 59.62870944683179 L 445.5101380816596 59.52216368078894 L 445.54893638123025 59.41578798265577 L 445.590085861066 59.30959298991343 L 445.63358240625297 59.203589321972714 L 445.6794216671731 59.09778757911208 L 445.72759905993826 58.992198341417634 L 445.7781097668495 58.88683216772516 L 445.83094873687816 58.78169959456423 L 445.88611068617126 58.67681113510454 L 445.9435900985799 58.57217727810464 L 446.0033812262106 58.46780848686303 L 446.06547809000057 58.36371519817185 L 446.1298744803151 58.25990782127324 L 446.19656395756886 58.15639673681838 L 446.26553985286967 58.053192295829454 L 446.3367952686855 57.950304818664556 L 446.41032307953407 57.84774459398567 L 446.4861159326957 57.745521877729786 L 446.56416624894814 57.64364689208335 L 446.64446622332486 57.54212982446004 L 446.7270078258953 57.44098082648201 L 446.811782802568 57.340210012964775 L 446.898782675916 57.2398274609057 L 446.98799874602435 57.13984320847635 L 447.07942209136047 57.040267254018644 L 447.17304356966594 56.94110955504505 L 447.26885381887104 56.84238002724283 L 447.3668432580306 56.74408854348249 L 447.4670020882824 56.646244932830506 L 447.56932029382693 56.54885897956639 L 447.67378764292886 56.45194042220433 L 447.7803936889403 56.35549895251929 L 447.8891277713455 56.25954421457787 L 447.9999790168269 56.16408580377391 L 448.11293634035223 56.06913326586893 L 448.2279884462833 55.974696096037604 L 448.34512382950544 55.88078373791821 L 448.4643307765779 55.7874055826683 L 448.58559736690535 55.694570968025594 L 448.70891147392973 55.60228917737418 L 448.83426076634316 55.51056943881623 L 448.9616327093209 55.41942092424918 L 449.0910145657747 55.328852748448504 L 449.2223933976267 55.23887396815633 L 449.35575606710336 55.14949358117568 L 449.4910892380488 55.0607205254708 L 449.6283793772586 54.97256367827326 L 449.7676127558334 54.88503185519433 L 449.9087754505513 54.79813380934336 L 450.0518533452604 54.71187823045254 L 450.1968321322905 54.62627374400786 L 450.3436973138838 54.541328910386646 L 450.4924342036445 54.45705222400146 L 450.6430279280075 54.373452112450714 L 450.79546342772585 54.290536935675895 L 450.9497254593767 54.20831498512558 L 451.1057985968853 54.12679448292632 L 451.2636672330681 54.0459835810604 L 451.423315581193 53.965890360550645 L 451.58472767655815 53.88652283065238 L 451.74788737808865 53.80788892805245 L 451.9127783699502 53.72999651607559 L 452.0793841631811 53.652853383898076 L 452.2476880973408 53.57646724576885 L 452.4176733421762 53.50084574023808 L 452.5893228993044 53.42599642939328 L 452.76261960391287 53.35192679810317 L 452.93754612647535 53.278644253269164 L 453.11408497448554 53.20615612308466 L 453.2922184942056 53.13446965630228 L 453.47192887243216 53.06359202150896 L 453.65319813827705 52.99353030640911 L 453.83600816496477 52.924291517115876 L 454.020340671645 52.85588257745046 L 454.20617722522064 52.78831032824984 L 454.39349924219124 52.72158152668263 L 454.58228799051125 52.65570284557336 L 454.772524591463 52.590680872735255 L 454.96419002154516 52.52652211031142 L 455.15726511437424 52.463232974124615 L 455.3517305626019 52.40081979303573 L 455.54756691984545 52.33928880831086 L 455.7447546026323 52.278646172997206 L 455.9432738923585 52.21889795130775 L 456.14310493726055 52.160050118014894 L 456.3442277544004 52.1021085578529 L 456.54662223166395 52.045079064929524 L 456.7502681297722 51.98896734214652 L 456.95514508430506 51.933779000629414 L 457.1612326077377 51.87951955916637 L 457.3685100914896 51.826194443656306 L 457.57695680798514 51.77380898656634 L 457.7865519127263 51.72236842639853 L 457.9972744463773 51.67187790716602 L 458.2091033368603 51.622342477878675 L 458.42201740146294 51.57376709203812 L 458.63599534895604 51.526156607142475 L 458.8510157817232 51.47951578420055 L 459.0670571979004 51.43384928725578 L 459.284097993526 51.38916168291979 L 459.5021164647013 51.34545743991578 L 459.7210908097609 51.302740928631636 L 459.94099913145266 51.261016420682886 L 460.1618194391278 51.220288088485546 L 460.3835296509395 51.18056000483891 L 460.6061075960514 51.14183614251822 L 460.8295310168544 51.10412037387746 L 461.0537775711926 51.06741647046204 L 461.2788248345975 51.03172810263173 L 461.50465030253025 50.99705883919358 L 461.73123139263225 50.96341214704502 L 461.95854544698335 50.930791390827245 L 462.1865697343675 50.899199832588685 L 462.41528145254597 50.86864063145883 L 462.6446577305376 50.83911684333235 L 462.87467563090564 50.81063142056343 L 463.10531215205185 50.78318721167063 L 463.3365442305162 50.75678696105195 L 463.5683487432836 50.731433308710464 L 463.8007025100959 50.70712878999027 L 464.0335822957701 50.683875835323 L 464.2669648125217 50.66167676998473 L 464.5008267222934 50.6405338138635 L 464.7351446390893 50.6204490812373 L 464.9698951313128 50.60142458056266 L 465.20505472411037 50.583462214273794 L 465.44059990171877 50.566563778592354 L 465.6765071098164 50.55073096334783 L 465.9127527578791 50.53596535180856 L 466.14931322153893 50.52226842052339 L 466.3861648449467 50.50964153917403 L 466.6232839431374 50.49808597043808 L 466.86064680439875 50.48760286986282 L 467.0982296926426 50.47819328574954 L 467.3360088497779 50.46985815904882 L 467.5739604980872 50.462598323266384 L 467.81206084260396 50.456414504379765 L 468.05028607349215 50.45130732076569 L 468.28861236842715 50.44727728313828 L 468.5270158949781 50.444324794497916 L 468.76547281299105 50.44245015009101 L 469.00395927697286 50.44165353738045 L 469.2424514384759 50.44193503602685 L 469.48092544848276 50.443294617880554 L 469.7193574597911 50.445732146984525 L 469.95772362939863 50.44924737958788 L 470.1960001208869 50.45383996417029 L 470.43416310680533 50.459509441477124 L 470.67218877105387 50.46625524456538 L 470.9100533112644 50.474076698860365 L 471.1477329411811 50.48297302222316 L 471.3852038930391 50.49294332502887 L 471.6224424199411 50.50398661025549 L 471.859424798232 50.51610177358371 L 472.0961273298716 50.52928760350731 L 472.33252634480397 50.54354278145426 L 472.5685982033245 50.55886588191867 L 472.80431929844417 50.575255372603245 L 473.03966605824985 50.592709614572584 L 473.2746149482617 50.61122686241703 L 473.50914247378654 50.630805264427224 L 473.74322518226717 50.651442862779284 L 473.9768396656279 50.67313759373059 L 474.20996256261503 50.695887287826096 L 474.44257056113315 50.71968967011537 L 474.6746404005762 50.74454236038002 L 474.9061488741537 50.77044287337172 L 475.1370728312112 50.797388619060754 L 475.36738917954534 50.825376902895016 L 475.59707488771335 50.85440492606945 L 475.82610698733566 50.88446978580591 L 476.05446257539336 50.9155684756435 L 476.28211881651777 50.947697885739125 L 476.50905294527456 50.980854803178566 L 476.73524226844 51.01503591229771 L 476.9606641672702 51.05023779501413 L 477.18529609976315 51.08645693116888 L 477.40911560291283 51.12368969887854 L 477.63210029495536 51.16193237489736 L 477.85422787760746 51.201181134989596 L 478.07547613829587 51.241432054311964 L 478.29582295237896 51.28268110780607 L 478.51524628535896 51.32492417060092 L 478.7337241950853 51.368157018425464 L 478.95123483394923 51.41237532803093 L 479.16775645106804 51.45757467762322 L 479.3832673944604 51.503750547305025 L 479.5977461132117 51.55089831952786 L 479.8111711596287 51.5990132795538 L 480.02352119138465 51.64809061592693 L 480.23477497365326 51.69812542095451 L 480.4449113812325 51.749112691197745 L 480.6539094006565 51.801047327972086 L 480.8617481322977 51.85392413785714 L 481.068406792456 51.90773783321599 L 481.2738647154377 51.962483032723924 L 481.4781013556216 52.01815426190663 L 481.681096289514 52.07474595368758 L 481.8828292177906 52.132252448944755 L 482.08327996732663 52.190667997076545 L 482.2824284932143 52.24998675657682 L 482.4802548807669 52.310202795619055 L 482.67673934751053 52.371310092649544 L 482.87186224516233 52.43330253698949 L 483.065604061595 52.49617392944612 L 483.2579454227885 52.559917982932596 L 483.4488670947669 52.62452832309667 L 483.6383499855221 52.68999848895818 L 483.82637514692294 52.7563219335551 L 484.01292377661 52.823492024598224 L 484.1979772198757 52.89150204513444 L 484.38151697153006 52.960345194218355 L 484.5635246777507 53.03001458759244 L 484.7439821379188 53.10050325837541 L 484.9228713064386 53.171804157758935 L 485.10017429454246 53.243910155712484 L 485.27587337207916 53.31681404169635 L 485.44995096928756 53.39050852538269 L 485.6223896785528 53.46498623738456 L 485.7931722561478 53.5402397299928 L 485.96228162395704 53.61626147792087 L 486.1297008711847 53.69304387905734 L 486.29541325604555 53.770579255226075 L 486.45940220743927 53.848859852954064 L 486.62165132660726 53.92787784424677 L 486.78214438877285 54.00762532737092 L 486.9408653447636 54.08809432764465 L 487.0977983226162 54.16927679823499 L 487.2529276291636 54.251164620962534 L 487.40623775160435 54.33374960711325 L 487.5577133590541 54.41702349825734 L 487.7073393040783 54.500977967075094 L 487.85510062420707 54.58560461818958 L 488.0009825434315 54.670894989006214 L 488.1449704736814 54.75684055055899 L 488.2870500162836 54.84343270836337 L 488.4272069634023 54.93066280327574 L 488.56542729945954 55.0185221123593 L 488.70169720253693 55.107001849756344 L 488.8360030457577 55.196093167566886 L 488.96833139864947 55.28578715673337 L 489.0986690284872 55.37607484793163 L 489.2270029016166 55.46694721246779 L 489.35332018475714 55.55839516318112 L 489.4776082462859 55.65040955535275 L 489.59985465750026 55.742981187620146 L 489.720047193861 55.83610080289723 L 489.8381738362146 55.92975908930006 L 489.9542227719953 56.02394668107806 L 490.0681823964062 56.11865415955053 L 490.1800413135798 56.213872054048544 L 490.2897883377177 56.30959084286201 L 490.3974124942089 56.405800954191804 L 490.50290302072733 56.50249276710697 L 490.60624936830834 56.5996566125068 L 490.70744120240334 56.69728277408771 L 490.80646840391313 56.79536148931491 L 490.90332107020015 56.89388295039859 L 490.9979895160785 56.99283730527477 L 491.0904642747825 57.09221465859041 L 491.18073609891326 57.19200507269298 L 491.2687959613636 57.29219856862425 L 491.35463505622073 57.39278512711811 L 491.4382447996466 57.49375468960253 L 491.51961683073665 57.59509715920541 L 491.5987430123555 57.69680240176424 L 491.675615431951 57.79886024683951 L 491.75022640234516 57.90126048873177 L 491.82256846250317 58.003992887502164 L 491.8926343782793 58.10704716999642 L 491.9604171431404 58.21041303087217 L 492.0259099788663 58.31408013362946 L 492.0891063362282 58.41803811164441 L 492.14999989564296 58.52227656920584 L 492.20858456780536 58.62678508255487 L 492.264854494297 58.731553200927245 L 492.3188040481722 58.83657044759845 L 492.3704278345204 58.94182632093131 L 492.4197206910061 59.04731029542622 L 492.4666776883847 59.153011822773635 L 492.51129413099557 59.25892033290889 L 492.5535655572316 59.36502523506925 L 492.59348773998545 59.471315918852895 L 492.6310566870721 59.57778175528004 L 492.66626864162816 59.684412097855756 L 492.69912008248747 59.79119628363465 L 492.72960772453337 59.89812363428712 L 492.757728519027 60.005183457167206 L 492.7834796539124 60.11236504638185 L 492.8068585540976 60.21965768386144 L 492.8278628817119 60.327050640431644 L 492.8464905363402 60.43453317688629 L 492.8627396552324 60.5420945450613 L 492.87660861349036 60.6497239889095 L 492.88809602422964 60.757410745576195 L 492.89720073871877 60.86514404647545 L 492.9039218464939 60.972913118366954 L 492.90825867544993 61.08070718443333 L 492.9102107919075 61.188515465357796 M 492.9103317819635 95.52678387991818 L 492.90913932205984 95.6345944248348 L 492.9055620615938 95.74239418878678 L 492.8996003582884 95.85017239188754 L 492.8912548083091 95.95791825640659 L 492.8805262462039 96.06562100784727 L 492.86741574482005 96.1732698760242 L 492.8519246151968 96.28085409614023 L 492.8340544064342 96.38836290986303 L 492.8138069055382 96.49578556640084 L 492.791184137242 96.60311132357748 L 492.7661883638037 96.7103294489067 L 492.73882208477966 96.8174292206653 L 492.70908803677503 96.92439992896537 L 492.6769891931699 97.0312308768252 L 492.6425287638218 97.13791138123905 L 492.605710194745 97.24443077424536 L 492.56653716776566 97.35077840399362 L 492.5250136001539 97.45694363580944 L 492.48114364423185 97.56291585325815 L 492.4349316869586 97.66868445920629 L 492.38638234949127 97.77423887688141 L 492.33550048672316 97.8795685509297 L 492.28229118679826 97.98466294847155 L 492.2267597706021 98.08951156015478 L 492.16891179123 98.19410390120557 L 492.10875303343187 98.29842951247699 L 492.0462895130332 98.40247796149485 L 491.981527476334 98.50623884350097 L 491.91447339948405 98.60970178249359 L 491.845133987835 98.71285643226504 L 491.7735161752704 98.81569247743631 L 491.6996271235118 98.91819963448859 L 491.6234742214027 99.02036765279156 L 491.5450650841699 99.12218631562857 L 491.46440755266184 99.22364544121817 L 491.38150969256435 99.32473488373233 L 491.29637979359444 99.42544453431107 L 491.20902636867106 99.52576432207324 L 491.1194581530639 99.62568421512367 L 491.02768410351985 99.72519422155631 L 490.9337133973674 99.82428439045346 L 490.83755543159884 99.92294481288079 L 490.7392198219307 100.02116562287829 L 490.6387164018419 100.11893699844678 L 490.53605522159074 100.2162491625302 L 490.43124654720975 100.31309238399325 L 490.3243008594789 100.40945697859446 L 490.21522885287794 100.50533330995468 L 490.1040414345166 100.60071179052068 L 489.9907497230441 100.69558288252388 L 489.87536504753706 100.78993709893413 L 489.75789894636705 100.88376500440843 L 489.63836316604613 100.97705721623441 L 489.5167696600529 101.06980440526866 L 489.39313058763645 101.16199729686952 L 489.2674583126011 101.25362667182469 L 489.1397654020696 101.34468336727302 L 489.0100646252266 101.43515827762084 L 488.8783689520417 101.52504235545253 L 488.7446915519725 101.61432661243519 L 488.6090457926475 101.70300212021755 L 488.4714452385297 101.7910600113227 L 488.3319036495598 101.87849148003492 L 488.19043497978043 101.9652877832802 L 488.0470533759407 102.05144024150056 L 487.9017731760815 102.13694023952193 L 487.7546089081017 102.22177922741581 L 487.6055752883055 102.30594872135407 L 487.4546872199307 102.38944030445748 L 487.30195979165836 102.47224562763729 L 487.14740827610404 102.5543564104302 L 486.9910481282906 102.63576444182635 L 486.8328949841023 102.71646158109044 L 486.672964658722 102.79643975857579 L 486.51127314504885 102.8756909765313 L 486.34783661209946 102.95420730990122 L 486.182671403391 103.03198090711763 L 486.0157940353066 103.10900399088564 L 485.84722119544415 103.18526885896105 L 485.6769697409471 103.2607678849206 L 485.5050566968189 103.33549351892461 L 485.33149925422083 103.40943828847196 L 485.1563147687525 103.48259479914732 L 484.9795207587165 103.55495573536056 L 484.80113490336646 103.6265138610784 L 484.6211750411392 103.69726202054787 L 484.4396591678711 103.76719313901197 L 484.25660543499816 103.83630022341715 L 484.07203214774114 103.90457636311257 L 483.885957763275 103.97201473054113 L 483.698400888883 104.03860858192229 L 483.50938028009637 104.10435125792642 L 483.31891483881844 104.1692361843407 L 483.1270236114347 104.23325687272656 L 482.93372578690787 104.29640692106851 L 482.73904069485934 104.35868001441433 L 482.54298780363615 104.4200699255066 L 482.34558671836396 104.48057051540535 L 482.14685717898686 104.54017573410202 L 481.94681905829316 104.5988796211244 L 481.7454923599282 104.65667630613272 L 481.5428972163941 104.71356000950664 L 481.3390538870364 104.7695250429232 L 481.13398275601804 104.82456580992574 L 480.92770433028136 104.87867680648341 L 480.720239237497 104.93185262154162 L 480.51160822400135 104.98408793756322 L 480.30183215272183 105.0353775310601 L 480.0909320010909 105.08571627311568 L 479.8789288589478 105.13509912989768 L 479.6658439264302 105.1835211631616 L 479.4516985118538 105.23097753074444 L 479.2365140295815 105.27746348704899 L 479.02031199788223 105.32297438351839 L 478.8031140367791 105.36750566910086 L 478.5849418658871 105.41105289070501 L 478.36581730224157 105.45361169364494 L 478.14576225811624 105.49517782207583 L 477.9247987388321 105.53574711941947 L 477.7029488405571 105.57531552877992 L 477.48023474809605 105.61387909334925 L 477.25667873267264 105.65143395680312 L 477.03230314970216 105.68797636368647 L 476.8071304365559 105.72350265978909 L 476.58118311031745 105.75800929251095 L 476.35448376553126 105.79149281121755 L 476.12705507194283 105.82394986758491 L 475.89891977223203 105.85537721593445 L 475.67010067973877 105.88577171355752 L 475.4406206761815 105.9151303210297 L 475.21050270936934 105.94345010251467 L 474.9797697909073 105.97072822605791 L 474.7484449938949 105.99696196386981 L 474.51655145061915 106.02214869259844 L 474.284112350241 106.04628589359189 L 474.05115093647686 106.0693711531502 L 473.817690505274 106.09140216276666 L 473.58375440248096 106.11237671935864 L 473.34936602151305 106.13229272548797 L 473.11454880101303 106.15114818957065 L 472.87932622250736 106.16894122607596 L 472.6437218080578 106.1856700557151 L 472.4077591179095 106.20133300561903 L 472.1714617481348 106.21592850950582 L 471.93485332827373 106.22945510783724 L 471.69795751897124 106.24191144796474 L 471.4607980096107 106.25329628426466 L 471.22339851594546 106.2636084782629 L 470.98578277772714 106.2728469987486 L 470.7479745563314 106.28101092187747 L 470.50999763238235 106.28809943126396 L 470.271875803374 106.29411181806304 L 470.03363288129077 106.29904748104106 L 469.79529269022646 106.30290592663582 L 469.5568790640014 106.30568676900597 L 469.3184158437797 106.30738973006962 L 469.0799268756845 106.30801463953205 L 468.84143600841406 106.30756143490284 L 468.60296709085617 106.3060301615021 L 468.364543969704 106.30342097245587 L 468.1261904870709 106.29973412868088 L 467.88793047810657 106.29496999885845 L 467.64978776861335 106.28912905939758 L 467.41178617266365 106.28221189438736 L 467.17394949021883 106.27421919553852 L 466.9363015047489 106.26515176211427 L 466.69886598085435 106.25501050085043 L 466.46166666188975 106.24379642586464 L 466.2247272675893 106.23151065855508 L 465.988071491695 106.21815442748823 L 465.7517229995872 106.20372906827606 L 465.51570542591816 106.1882360234425 L 465.2800423722486 106.17167684227908 L 465.04475740468746 106.15405318069014 L 464.8098740515354 106.13536680102716 L 464.57541580093215 106.11561957191253 L 464.3414060985072 106.09481346805269 L 464.1078683450359 106.0729505700407 L 463.87482589409893 106.05003306414814 L 463.64230204974723 106.0260632421065 L 463.41032006417146 106.00104350087803 L 463.1789031353768 105.97497634241597 L 462.9480744048633 105.94786437341445 L 462.71785695531173 105.9197103050478 L 462.4882738082751 105.89051695269937 L 462.2593479218769 105.86028723568009 L 462.03110218851486 105.82902417693644 L 461.80355943257223 105.79673090274827 L 461.576742408135 105.76341064241608 L 461.3506737967164 105.72906672793813 L 461.1253762049895 105.69370259367726 L 460.90087216252545 105.6573217760174 L 460.67718411954155 105.61992791301003 L 460.4543344446556 105.58152474401028 L 460.23234542264953 105.54211610930304 L 460.0112392522404 105.50170594971894 L 459.7910380438611 105.46029830624026 L 459.57176381744887 105.41789731959686 L 459.35343850024367 105.37450722985206 L 459.1360839245953 105.33013237597868 L 458.9197218257802 105.28477719542511 L 458.70437383982795 105.23844622367163 L 458.4900615013577 105.1911440937768 L 458.2768062414246 105.14287553591419 L 458.06462938537703 105.09364537689936 L 457.8535521507238 105.0434585397072 L 457.6435956450124 104.99232004297959 L 457.4347808637185 104.9402350005236 L 457.2271286881462 104.88720862080007 L 457.02065988334 104.83324620640276 L 456.81539509600833 104.77835315352817 L 456.6113548524589 104.72253495143585 L 456.408559556546 104.66579718189945 L 456.20702948763017 104.60814551864868 L 456.0067847985505 104.54958572680184 L 455.80784551360887 104.49012366228926 L 455.6102315265681 104.42976527126788 L 455.41396259866224 104.36851658952648 L 455.2190583566204 104.30638374188221 L 455.0255382907045 104.24337294156805 L 454.83342175275976 104.17949048961154 L 454.6427279542799 104.11474277420461 L 454.4534759644859 104.04913627006486 L 454.26568470841903 103.98267753778805 L 454.0793729650484 103.91537322319199 L 453.894559365393 103.84723005665208 L 453.7112623906589 103.77825485242818 L 453.52950037039074 103.70845450798322 L 453.3492914806391 103.63783600329349 L 453.17065374214286 103.56640640015061 L 452.9936050185269 103.49417284145538 L 452.81816301451613 103.42114255050346 L 452.6443452741647 103.3473228302631 L 452.4721691791018 103.27272106264479 L 452.3016519467934 103.19734470776314 L 452.1328106288208 103.1212013031908 L 451.9656621091749 103.04429846320481 L 451.8002231025685 102.96664387802507 L 451.6365101527644 102.88824531304537 L 451.4745396309211 102.8091106080569 L 451.31432773395574 102.72924767646418 L 451.1558904829247 102.64866450449387 L 450.99924372142084 102.56736915039596 L 450.8444031139899 102.48536974363815 L 450.69138414456364 102.40267448409276 L 450.5402021149114 102.31929164121684 L 450.39087214311013 102.2352295532252 L 450.2434091620326 102.15049662625658 L 450.09782791785403 102.06510133353308 L 449.95414296857757 101.97905221451278 L 449.8123686825784 101.89235787403591 L 449.6725192371669 101.80502698146424 L 449.53460861717116 101.71706826981428 L 449.3986506135382 101.62849053488388 L 449.2646588219551 101.53930263437272 L 449.1326466414894 101.44951348699652 L 449.002627273249 101.35913207159521 L 448.87461371906255 101.26816742623502 L 448.7486187801787 101.17662864730465 L 448.6246550559863 101.08452488860574 L 448.50273494275456 100.9918653604374 L 448.3828706323932 100.89865932867522 L 448.2650741112333 100.80491611384473 L 448.1493571588288 100.71064509018925 L 448.0357313467786 100.61585568473262 L 447.9242080375692 100.5205573763364 L 447.81479838343853 100.424759694752 L 447.70751332526083 100.32847221966773 L 447.6023635914526 100.2317045797509 L 447.49935969689955 100.13446645168483 L 447.3985119419052 100.03676755920131 L 447.29983041116117 99.93861767210817 L 447.2033249727382 99.84002660531232 L 447.10900527709975 99.7410042178383 L 447.01688075613674 99.64156041184232 L 446.92696062222456 99.54170513162211 L 446.83925386730164 99.4414483626225 L 446.7537692619704 99.34080013043682 L 446.67051535462 99.23977049980442 L 446.58950047057203 99.13836957360418 L 446.5107327112472 99.03660749184422 L 446.4342199533559 98.9344944306479 L 446.35996984811015 98.83204060123627 L 446.28798982045856 98.72925624890688 L 446.21828706834395 98.6261516520093 L 446.15086856198343 98.52273712091731 L 446.0857410431714 98.41902299699785 L 446.02291102460555 98.31501965157686 L 445.96238478923533 98.21073748490224 L 445.90416838963387 98.10618692510373 L 445.84826764739256 98.0013784271502 L 445.79468815253915 97.89632247180411 L 445.7434352629784 97.79102956457344 L 445.6945141039565 97.68551023466115 L 445.64792956754866 97.57977503391233 L 445.6036863121697 97.47383453575894 L 445.56178876210834 97.3676993341625 L 445.52224110708454 97.2613800425547 L 445.48504730183095 97.15488729277617 L 445.45021106569703 97.04823173401307 L 445.41773588227744 96.94142403173245 L 445.3876249990634 96.8344748666155 L 445.3598814271181 96.72739493348962 L 445.3345079407758 96.6201949402589 L 445.3115070773638 96.51288560683331 L 445.2908811369493 96.40547766405678 L 445.2726321821092 96.29798185263407 L 445.2567620377238 96.19040892205675 L 445.24327229079427 96.08276962952824 L 445.23216429028406 95.9750747388881 L 445.22343914698394 95.86733501953563 L 445.21709773340103 95.75956124535298 L 445.21314068367144 95.65176419362778 L 445.2115683934967 95.54395464397535" stroke-miterlimit="10" stroke-width="2.7769845610000004" stroke-dasharray=""/></g><g><g/><text fill="black" stroke="none" font-family="sans-serif" font-size="11pt" font-style="normal" font-weight="normal" text-decoration="normal" x="437.68299001767446" y="123.83569119881818" text-anchor="start" dominant-baseline="alphabetic" xml:space="preserve">Database</text></g><path fill="none" stroke="none"/><g><path fill="white" stroke="black" paint-order="fill stroke markers" d=" M 608.9958268659179 84.63120327881819 L 725.9106099946914 84.63120327881819 L 725.9106099946914 128.73625218881818 L 608.9958268659179 128.73625218881818 L 608.9958268659179 84.63120327881819 Z" stroke-miterlimit="10" stroke-width="2.613632528" stroke-dasharray=""/></g><g><g/><text fill="black" stroke="none" font-family="sans-serif" font-size="11pt" font-style="normal" font-weight="normal" text-decoration="normal" x="626.719522446418" y="112.40104888881817" text-anchor="start" dominant-baseline="alphabetic" xml:space="preserve">StockMarket</text></g></g><g><g><text fill="black" stroke="none" font-family="sans-serif" font-size="16pt" font-style="normal" font-weight="normal" text-decoration="normal" x="236.59341430664062" y="24.651306798181814" text-anchor="start" dominant-baseline="alphabetic" xml:space="preserve">Stock Management System</text></g><path fill="none" stroke="black" paint-order="fill stroke markers" d=" M 8.16760165 174.7470748171515 L 725.83239835 174.7470748171515 M 8.16760165 180.19214258381817 L 725.83239835 180.19214258381817 M 8.16760165 185.63721035048482 L 725.83239835 185.63721035048482" stroke-miterlimit="10" stroke-width="1.3612669416666667" stroke-dasharray=""/><path fill="white" stroke="black" paint-order="fill stroke markers" d=" M 254.10569859533206 161.40665878881816 L 479.894301404668 161.40665878881816 L 479.894301404668 198.97762637881817 L 254.10569859533206 198.97762637881817 Z" stroke-miterlimit="10" stroke-width="1.3612669416666667" stroke-dasharray=""/><g><text fill="black" stroke="none" font-family="sans-serif" font-size="11pt" font-style="normal" font-weight="normal" text-decoration="normal" x="276.97498321533203" y="184.27594340881814" text-anchor="start" dominant-baseline="alphabetic" xml:space="preserve"> Deposit/Withdraw Process </text></g><g><rect fill="white" stroke="none" x="60.69730098576038" y="223.48043132881818" width="178.4509760290625" height="21.23576429"/><text fill="black" stroke="none" font-family="sans-serif" font-size="11pt" font-style="normal" font-weight="normal" text-decoration="normal" x="63.14758148076038" y="238.18211429881816" text-anchor="start" dominant-baseline="alphabetic" xml:space="preserve">Deposit/Withdraw Request</text></g><g><path fill="none" stroke="black" paint-order="fill stroke markers" d=" M 41.36731041409375 244.71619561881818 L 245.0289502028229 244.71619561881818" stroke-miterlimit="10" stroke-width="1.3612669416666667" stroke-dasharray=""/><g transform="translate(258.47826758648955,244.71619561881818) translate(-258.47826758648955,-244.71619561881818)"><path fill="black" stroke="none" paint-order="stroke fill markers" d=" M 244.86559816982287 237.90986091048484 L 258.47826758648955 244.71619561881818 L 244.86559816982287 251.52253032715151 Z"/></g></g><g><rect fill="white" stroke="none" x="277.8082581581562" y="269.21900056881816" width="171.92268623414063" height="21.23576429"/><text fill="black" stroke="none" font-family="sans-serif" font-size="11pt" font-style="normal" font-weight="normal" text-decoration="normal" x="280.2585386531562" y="283.92068353881814" text-anchor="start" dominant-baseline="alphabetic" xml:space="preserve">Retrieve User Information</text></g><g><path fill="none" stroke="black" paint-order="fill stroke markers" d=" M 258.47826758648955 290.4547648588182 L 455.61161758029687 290.4547648588182" stroke-miterlimit="10" stroke-width="1.3612669416666667" stroke-dasharray=""/><g transform="translate(469.0609349639635,290.4547648588182) translate(-469.0609349639635,-290.4547648588182)"><path fill="black" stroke="none" paint-order="stroke fill markers" d=" M 455.44826554729684 283.64843015048484 L 469.0609349639635 290.4547648588182 L 455.44826554729684 297.2610995671515 Z"/></g></g><g><rect fill="white" stroke="none" x="331.58060465473824" y="314.95756980881816" width="64.37799324097656" height="21.23576429"/><text fill="black" stroke="none" font-family="sans-serif" font-size="11pt" font-style="normal" font-weight="normal" text-decoration="normal" x="334.03088514973825" y="329.65925277881814" text-anchor="start" dominant-baseline="alphabetic" xml:space="preserve">User Info</text></g><g><path fill="none" stroke="black" paint-order="fill stroke markers" d=" M 469.0609349639635 336.1933340988182 L 271.9275849701562 336.1933340988182" stroke-miterlimit="10" stroke-width="1.3612669416666667" stroke-dasharray="6.53408132"/><g transform="translate(258.47826758648955,336.1933340988182) translate(-258.47826758648955,-336.1933340988182)"><path fill="black" stroke="none" paint-order="stroke fill markers" d=" M 272.0909370031562 329.38699939048485 L 258.47826758648955 336.1933340988182 L 272.0909370031562 342.9996688071515 Z"/></g></g><g><rect fill="white" stroke="none" x="309.15756235737496" y="360.69613904881817" width="109.22407783570313" height="21.23576429"/><text fill="black" stroke="none" font-family="sans-serif" font-size="11pt" font-style="normal" font-weight="normal" text-decoration="normal" x="311.607842852375" y="375.39782201881815" text-anchor="start" dominant-baseline="alphabetic" xml:space="preserve">Update Balance</text></g><g><path fill="none" stroke="black" paint-order="fill stroke markers" d=" M 258.47826758648955 381.9319033388182 L 455.61161758029687 381.9319033388182" stroke-miterlimit="10" stroke-width="1.3612669416666667" stroke-dasharray=""/><g transform="translate(469.0609349639635,381.9319033388182) translate(-469.0609349639635,-381.9319033388182)"><path fill="black" stroke="none" paint-order="stroke fill markers" d=" M 455.44826554729684 375.12556863048485 L 469.0609349639635 381.9319033388182 L 455.44826554729684 388.7382380471515 Z"/></g></g><g><rect fill="white" stroke="none" x="305.08097086567574" y="406.4347082888182" width="117.37726081910156" height="21.23576429"/><text fill="black" stroke="none" font-family="sans-serif" font-size="11pt" font-style="normal" font-weight="normal" text-decoration="normal" x="307.53125136067575" y="421.13639125881815" text-anchor="start" dominant-baseline="alphabetic" xml:space="preserve">Balance Updated</text></g><g><path fill="none" stroke="black" paint-order="fill stroke markers" d=" M 469.0609349639635 427.6704725788182 L 271.9275849701562 427.6704725788182" stroke-miterlimit="10" stroke-width="1.3612669416666667" stroke-dasharray="6.53408132"/><g transform="translate(258.47826758648955,427.6704725788182) translate(-258.47826758648955,-427.6704725788182)"><path fill="black" stroke="none" paint-order="stroke fill markers" d=" M 272.0909370031562 420.86413787048485 L 258.47826758648955 427.6704725788182 L 272.0909370031562 434.47680728715153 Z"/></g></g><g><rect fill="white" stroke="none" x="105.91919429630725" y="452.1732775288182" width="88.00718940796875" height="21.23576429"/><text fill="black" stroke="none" font-family="sans-serif" font-size="11pt" font-style="normal" font-weight="normal" text-decoration="normal" x="108.36947479130725" y="466.87496049881815" text-anchor="start" dominant-baseline="alphabetic" xml:space="preserve">Confirmation</text></g><g><path fill="none" stroke="black" paint-order="fill stroke markers" d=" M 258.47826758648955 473.4090418188182 L 54.81662779776042 473.4090418188182" stroke-miterlimit="10" stroke-width="1.3612669416666667" stroke-dasharray="6.53408132"/><g transform="translate(41.36731041409375,473.4090418188182) translate(-41.36731041409375,-473.4090418188182)"><path fill="black" stroke="none" paint-order="stroke fill markers" d=" M 54.97997983076042 466.60270711048486 L 41.36731041409375 473.4090418188182 L 54.97997983076042 480.21537652715153 Z"/></g></g><path fill="none" stroke="black" paint-order="fill stroke markers" d=" M 8.16760165 511.25226279715145 L 725.83239835 511.25226279715145 M 8.16760165 516.6973305638181 L 725.83239835 516.6973305638181 M 8.16760165 522.1423983304848 L 725.83239835 522.1423983304848" stroke-miterlimit="10" stroke-width="1.3612669416666667" stroke-dasharray=""/><path fill="white" stroke="black" paint-order="fill stroke markers" d=" M 264.2846613028516 497.9118467688181 L 469.71533869714847 497.9118467688181 L 469.71533869714847 535.4828143588181 L 264.2846613028516 535.4828143588181 Z" stroke-miterlimit="10" stroke-width="1.3612669416666667" stroke-dasharray=""/><g><text fill="black" stroke="none" font-family="sans-serif" font-size="11pt" font-style="normal" font-weight="normal" text-decoration="normal" x="287.15394592285156" y="520.7811313888182" text-anchor="start" dominant-baseline="alphabetic" xml:space="preserve"> Buy/Sell Stock Process </text></g><g><rect fill="white" stroke="none" x="275.3637391151875" y="559.9856193088181" width="158.09305061402344" height="21.23576429"/><text fill="black" stroke="none" font-family="sans-serif" font-size="11pt" font-style="normal" font-weight="normal" text-decoration="normal" x="277.81401961018753" y="574.687302278818" text-anchor="start" dominant-baseline="alphabetic" xml:space="preserve">Buy/Sell Stock Request</text></g><g><path fill="none" stroke="black" paint-order="fill stroke markers" d=" M 41.36731041409375 581.2213835988181 L 654.003901046638 581.2213835988181" stroke-miterlimit="10" stroke-width="1.3612669416666667" stroke-dasharray=""/><g transform="translate(667.4532184303047,581.2213835988181) translate(-667.4532184303047,-581.2213835988181)"><path fill="black" stroke="none" paint-order="stroke fill markers" d=" M 653.840549013638 574.4150488904847 L 667.4532184303047 581.2213835988181 L 653.840549013638 588.0277183071514 Z"/></g></g><g><rect fill="white" stroke="none" x="503.88126672215367" y="605.724188548818" width="128.75161994996094" height="21.23576429"/><text fill="black" stroke="none" font-family="sans-serif" font-size="11pt" font-style="normal" font-weight="normal" text-decoration="normal" x="506.3315472171537" y="620.425871518818" text-anchor="start" dominant-baseline="alphabetic" xml:space="preserve">Retrieve Stock Info</text></g><g><path fill="none" stroke="black" paint-order="fill stroke markers" d=" M 667.4532184303047 626.959952838818 L 482.51025234763017 626.959952838818" stroke-miterlimit="10" stroke-width="1.3612669416666667" stroke-dasharray=""/><g transform="translate(469.0609349639635,626.959952838818) translate(-469.0609349639635,-626.959952838818)"><path fill="black" stroke="none" paint-order="stroke fill markers" d=" M 482.6736043806302 620.1536181304847 L 469.0609349639635 626.959952838818 L 482.6736043806302 633.7662875471514 Z"/></g></g><g><rect fill="white" stroke="none" x="533.2119628281107" y="651.462757788818" width="70.09022773804688" height="21.23576429"/><text fill="black" stroke="none" font-family="sans-serif" font-size="11pt" font-style="normal" font-weight="normal" text-decoration="normal" x="535.6622433231107" y="666.1644407588179" text-anchor="start" dominant-baseline="alphabetic" xml:space="preserve">Stock Info</text></g><g><path fill="none" stroke="black" paint-order="fill stroke markers" d=" M 469.0609349639635 672.698522078818 L 654.003901046638 672.698522078818" stroke-miterlimit="10" stroke-width="1.3612669416666667" stroke-dasharray="6.53408132"/><g transform="translate(667.4532184303047,672.698522078818) translate(-667.4532184303047,-672.698522078818)"><path fill="black" stroke="none" paint-order="stroke fill markers" d=" M 653.840549013638 665.8921873704846 L 667.4532184303047 672.698522078818 L 653.840549013638 679.5048567871513 Z"/></g></g><g><rect fill="white" stroke="none" x="492.46751702732945" y="697.2013270288179" width="151.57911933960938" height="21.23576429"/><text fill="black" stroke="none" font-family="sans-serif" font-size="11pt" font-style="normal" font-weight="normal" text-decoration="normal" x="494.91779752232947" y="711.9030099988179" text-anchor="start" dominant-baseline="alphabetic" xml:space="preserve">Update Stock Quantity</text></g><g><path fill="none" stroke="black" paint-order="fill stroke markers" d=" M 667.4532184303047 718.4370913188179 L 482.51025234763017 718.4370913188179" stroke-miterlimit="10" stroke-width="1.3612669416666667" stroke-dasharray=""/><g transform="translate(469.0609349639635,718.4370913188179) translate(-469.0609349639635,-718.4370913188179)"><path fill="black" stroke="none" paint-order="stroke fill markers" d=" M 482.6736043806302 711.6307566104846 L 469.0609349639635 718.4370913188179 L 482.6736043806302 725.2434260271513 Z"/></g></g><g><rect fill="white" stroke="none" x="488.39092553563023" y="742.9398962688178" width="159.73230232300781" height="21.23576429"/><text fill="black" stroke="none" font-family="sans-serif" font-size="11pt" font-style="normal" font-weight="normal" text-decoration="normal" x="490.84120603063025" y="757.6415792388178" text-anchor="start" dominant-baseline="alphabetic" xml:space="preserve">Stock Quantity Updated</text></g><g><path fill="none" stroke="black" paint-order="fill stroke markers" d=" M 469.0609349639635 764.1756605588179 L 654.003901046638 764.1756605588179" stroke-miterlimit="10" stroke-width="1.3612669416666667" stroke-dasharray="6.53408132"/><g transform="translate(667.4532184303047,764.1756605588179) translate(-667.4532184303047,-764.1756605588179)"><path fill="black" stroke="none" paint-order="stroke fill markers" d=" M 653.840549013638 757.3693258504845 L 667.4532184303047 764.1756605588179 L 653.840549013638 770.9819952671512 Z"/></g></g><g><rect fill="white" stroke="none" x="310.40666971821486" y="788.6784655088178" width="88.00718940796875" height="21.23576429"/><text fill="black" stroke="none" font-family="sans-serif" font-size="11pt" font-style="normal" font-weight="normal" text-decoration="normal" x="312.8569502132149" y="803.3801484788178" text-anchor="start" dominant-baseline="alphabetic" xml:space="preserve">Confirmation</text></g><g><path fill="none" stroke="black" paint-order="fill stroke markers" d=" M 667.4532184303047 809.9142297988178 L 54.81662779776042 809.9142297988178" stroke-miterlimit="10" stroke-width="1.3612669416666667" stroke-dasharray="6.53408132"/><g transform="translate(41.36731041409375,809.9142297988178) translate(-41.36731041409375,-809.9142297988178)"><path fill="black" stroke="none" paint-order="stroke fill markers" d=" M 54.97997983076042 803.1078950904845 L 41.36731041409375 809.9142297988178 L 54.97997983076042 816.7205645071512 Z"/></g></g><path fill="none" stroke="black" paint-order="fill stroke markers" d=" M 8.16760165 847.7574507771511 L 725.83239835 847.7574507771511 M 8.16760165 853.2025185438177 L 725.83239835 853.2025185438177 M 8.16760165 858.6475863104844 L 725.83239835 858.6475863104844" stroke-miterlimit="10" stroke-width="1.3612669416666667" stroke-dasharray=""/><path fill="white" stroke="black" paint-order="fill stroke markers" d=" M 244.7248849966992 834.4170347488177 L 489.2751150033008 834.4170347488177 L 489.2751150033008 871.9880023388178 L 244.7248849966992 871.9880023388178 Z" stroke-miterlimit="10" stroke-width="1.3612669416666667" stroke-dasharray=""/><g><text fill="black" stroke="none" font-family="sans-serif" font-size="11pt" font-style="normal" font-weight="normal" text-decoration="normal" x="267.5941696166992" y="857.2863193688178" text-anchor="start" dominant-baseline="alphabetic" xml:space="preserve"> Admin Update Stock Process </text></g><g><rect fill="white" stroke="none" x="303.051620584914" y="896.4908072888177" width="121.435961380625" height="21.23576429"/><text fill="black" stroke="none" font-family="sans-serif" font-size="11pt" font-style="normal" font-weight="normal" text-decoration="normal" x="305.50190107991403" y="911.1924902588177" text-anchor="start" dominant-baseline="alphabetic" xml:space="preserve">Update Stock Info</text></g><g><path fill="none" stroke="black" paint-order="fill stroke markers" d=" M 258.47826758648955 917.7265715788177 L 455.61161758029687 917.7265715788177" stroke-miterlimit="10" stroke-width="1.3612669416666667" stroke-dasharray=""/><g transform="translate(469.0609349639635,917.7265715788177) translate(-469.0609349639635,-917.7265715788177)"><path fill="black" stroke="none" paint-order="stroke fill markers" d=" M 455.44826554729684 910.9202368704844 L 469.0609349639635 917.7265715788177 L 455.44826554729684 924.532906287151 Z"/></g></g><g><rect fill="white" stroke="none" x="298.9750290932148" y="942.2293765288176" width="129.58914436402344" height="21.23576429"/><text fill="black" stroke="none" font-family="sans-serif" font-size="11pt" font-style="normal" font-weight="normal" text-decoration="normal" x="301.4253095882148" y="956.9310594988176" text-anchor="start" dominant-baseline="alphabetic" xml:space="preserve">Stock Info Updated</text></g><g><path fill="none" stroke="black" paint-order="fill stroke markers" d=" M 469.0609349639635 963.4651408188176 L 271.9275849701562 963.4651408188176" stroke-miterlimit="10" stroke-width="1.3612669416666667" stroke-dasharray="6.53408132"/><g transform="translate(258.47826758648955,963.4651408188176) translate(-258.47826758648955,-963.4651408188176)"><path fill="black" stroke="none" paint-order="stroke fill markers" d=" M 272.0909370031562 956.6588061104843 L 258.47826758648955 963.4651408188176 L 272.0909370031562 970.271475527151 Z"/></g></g><g><rect fill="white" stroke="none" x="418.9621483044127" y="987.9679457688176" width="88.00718940796875" height="21.23576429"/><text fill="black" stroke="none" font-family="sans-serif" font-size="11pt" font-style="normal" font-weight="normal" text-decoration="normal" x="421.41242879941274" y="1002.6696287388176" text-anchor="start" dominant-baseline="alphabetic" xml:space="preserve">Confirmation</text></g><g><path fill="none" stroke="black" paint-order="fill stroke markers" d=" M 258.47826758648955 1009.2037100588176 L 654.003901046638 1009.2037100588176" stroke-miterlimit="10" stroke-width="1.3612669416666667" stroke-dasharray="6.53408132"/><g transform="translate(667.4532184303047,1009.2037100588176) translate(-667.4532184303047,-1009.2037100588176)"><path fill="black" stroke="none" paint-order="stroke fill markers" d=" M 653.840549013638 1002.3973753504843 L 667.4532184303047 1009.2037100588176 L 653.840549013638 1016.0100447671509 Z"/></g></g></g><g/><g/><g/><g/></g></svg>